<?xml version="1.0" encoding="UTF-8"?>
<svg width="288px" height="102px" viewBox="0 0 288 102" version="1.1" xmlns="http://www.w3.org/2000/svg" xmlns:xlink="http://www.w3.org/1999/xlink">
    <title>spur-header-logo</title>
    <g id="Page-2" stroke="none" stroke-width="1" fill="none" fill-rule="evenodd">
        <g id="spur-header-logo" transform="translate(0, 0.101)">
            <path d="M94.4061516,30.125024 L93.5363936,25.1690198 C93.3408243,24.0542951 92.634007,23.0960461 91.6271687,22.5808584 L88.4973532,20.9791299 L86.4958997,15.7842201 C86.045262,14.6146431 85.0206447,13.7630682 83.7893462,13.5348704 L80.1012087,12.851186 L75.5869527,6.54741052 C74.6854753,5.28843332 73.0817264,4.74607204 71.6021277,5.19963921 L67.9142933,6.33012255 L58.2961438,0.51910887 C56.9083697,-0.319434798 55.1320835,-0.127300109 53.9551323,0.988535738 L50.7309667,4.0452148 L36.3340982,1.64120778 C34.5643781,1.34563149 32.8469849,2.39802855 32.3051288,4.10996682 L30.4047934,10.112105 L14.5051933,14.4282664 C12.5660674,14.9546669 11.4313413,16.9665252 11.9826931,18.9004993 L14.1170853,26.386782 L1.25931466,37.413414 C-0.369991553,38.8105827 -0.426561178,41.3143947 1.13779098,42.7839928 L8.23040971,49.4469854 L1.55468891,64.6390612 C0.720893049,66.536669 1.6521705,68.7456119 3.59210455,69.4713193 L14.0264728,73.3751285 L15.5248608,87.407729 C15.7415426,89.4367602 17.594804,90.8822151 19.6132284,90.5966396 L30.9847331,88.9880419 L37.526101,99.3378588 C38.6454725,101.108993 41.0319025,101.555893 42.7152529,100.309543 L52.6803964,92.9317529 L63.157596,98.134239 C63.8002673,98.4453719 64.5182975,98.4732527 65.1526854,98.2364684 C66.1246728,97.8746248 67.0945388,97.4729805 68.0371302,97.0417381 C75.9683936,93.4105743 81.2422989,88.0701997 83.288402,81.5978265 L83.5856956,80.6574575 L91.2444146,79.6010198 C92.8734178,79.3762565 94.144012,78.0762664 94.3328131,76.4410001 L95.8174627,63.5784817 L99.5491386,59.5001148 C100.334648,58.6416708 100.658105,57.4566382 100.417785,56.3177704 L98.6428124,47.9041499 L100.699017,43.3358497 C101.191072,42.2426417 101.10844,40.9762902 100.478598,39.9564207 L94.4061516,30.125024 Z" id="Fill-1" fill="#000F55"></path>
            <path d="M54.9884169,47.0596765 C56.3798276,48.9686993 62.8341187,48.9517284 63.952682,47.356364 L65.4369276,42.6277495 C65.4679398,42.5287526 65.4477364,42.418947 65.3793478,42.3407597 C65.0817511,42.0002307 64.6984919,41.8672921 64.6984919,41.8672921 C63.3249612,42.3280315 62.2331675,42.3866215 61.1363229,41.4888817 L59.1378999,41.4641325 C59.0570861,41.4631223 58.9758683,41.4723149 58.897681,41.4928214 C54.7863825,42.5696646 54.1385593,45.8936351 54.9884169,47.0596765" id="Fill-3" fill="#FFC700"></path>
            <path d="M80.4670728,36.6856963 C80.1259377,35.6958289 77.9148735,30.0132081 71.8816221,29.254367 C71.7617147,29.2393154 71.6559497,29.3346756 71.6561514,29.4555932 L71.6649402,36.2918303 C71.6650412,36.3920394 71.7393899,36.4773989 71.8385887,36.4917433 C76.1919244,37.11906 77.07138,36.5297258 80.3617118,36.8185339 C80.4345452,36.824898 80.4909128,36.7547921 80.4670728,36.6856963" id="Fill-5" fill="#C52026"></path>
            <path d="M51.444441,24.6363461 L14.7903547,18.4920767 C14.6439808,18.4675295 14.521952,18.6040037 14.562662,18.746741 L16.5078489,25.5690377 C16.5331032,25.6576298 16.6151292,25.7179371 16.7072569,25.7156785 L51.4302986,24.8369662 C51.5526304,24.8338347 51.5651565,24.6565495 51.444441,24.6363461" id="Fill-7" fill="#FF7800"></path>
            <path d="M75.8828219,24.5453801 C73.9682432,23.322365 71.4784726,22.4280598 68.289562,22.2816859 C68.1887469,22.2771402 68.1431881,22.4059371 68.2252141,22.4647291 L72.4482376,25.4974671 C72.521273,25.549895 72.6139057,25.5671689 72.7009826,25.5446421 L75.8528198,24.7280191 C75.9379773,24.7059974 75.9568675,24.5926561 75.8828219,24.5453801" id="Fill-9" fill="#C52026"></path>
            <path d="M61.0462963,26.4761721 L62.8225826,22.737829 C62.8931936,22.5892328 62.7628814,22.4252819 62.601759,22.4584155 C59.651451,23.0659329 57.2135022,24.2861195 55.2095233,25.8436025 C55.066685,25.9546203 55.1350736,26.1837273 55.3153893,26.1986779 L60.7475885,26.6481033 C60.8732539,26.6585081 60.9921511,26.5900184 61.0462963,26.4761721" id="Fill-11" fill="#C52026"></path>
            <path d="M70.8161029,49.2018975 C70.8157998,48.123236 70.6393228,40.317941 70.6085126,38.9619873 C70.6058861,38.8493531 70.5123442,38.7611651 70.399811,38.7655089 C69.4639878,38.80137 68.2573375,39.0635096 67.8364999,39.1608901 C67.7465946,39.1816997 67.6822467,39.2605941 67.6801253,39.3529238 L67.619717,41.9371455 C67.6183028,41.9999782 67.6069889,42.0623058 67.5863814,42.1217039 L65.2132856,48.9583451 C65.1850008,49.0396639 65.2113663,49.1298723 65.2789468,49.1832093 L66.397005,50.0660995 C66.5138819,50.1584292 66.4940825,50.3411693 66.3598307,50.4058203 C65.4440089,50.8465583 63.9476413,51.5593356 62.9436315,53.1346986 C62.8971636,53.207532 62.9546423,53.301377 63.0404059,53.2904671 C65.8557549,52.9335734 69.7666353,52.8066958 70.6592232,52.7815425 C70.7654933,52.778613 70.8504487,52.6944657 70.8546914,52.5882967 C70.8685308,52.2415047 70.8847946,51.4896337 70.7977177,50.9683851 C70.7822621,50.8760553 70.7036707,50.809384 70.6103309,50.8024138 C68.9673873,50.680082 67.7014399,49.7071855 67.3030282,49.3649392 C67.2261541,49.298975 67.2110015,49.1859368 67.266662,49.1012844 L67.8508444,48.2140504 C67.9141821,48.1178821 68.0442923,48.09384 68.1376322,48.1612184 C68.5737234,48.4763921 69.7689587,49.275539 70.7097318,49.3022076 C70.7676146,49.3039249 70.8161029,49.2597804 70.8161029,49.2018975" id="Fill-13" fill="#FF7800"></path>
            <path d="M64.0550124,26.7017435 L69.0569795,26.1280669 C69.1487031,26.1175611 69.1794123,25.999573 69.1043565,25.9456298 L65.815944,23.584252 C65.7169472,23.513237 65.5781496,23.5452594 65.5202667,23.6524386 L63.9546014,26.5533492 C63.9158108,26.6252734 63.9738956,26.711037 64.0550124,26.7017435" id="Fill-15" fill="#007F88"></path>
            <path d="M48.372973,6.21161929 L38.9243304,4.63403388 C38.8149288,4.61574977 38.7602785,4.76161859 38.8548306,4.81970347 L62.0214051,19.0545404 C62.1252508,19.1183832 62.232329,18.9776663 62.1431309,18.8945291 L48.6861263,6.36587253 C48.5991505,6.28485675 48.490254,6.23121662 48.372973,6.21161929" id="Fill-17" fill="#FFC700"></path>
            <path d="M55.1075969,3.37414752 L52.4770084,5.8678578 C52.3919519,5.94846952 52.3931641,6.08443865 52.4797358,6.16353511 L66.4122283,18.8964485 C66.5020326,18.9785754 66.633658,18.8609914 66.5621378,18.7624997 L55.4100424,3.40202827 C55.3384212,3.30333448 55.196189,3.29020224 55.1075969,3.37414752" id="Fill-19" fill="#FF7800"></path>
            <path d="M56.035359,37.4299 C62.8335126,34.6755654 66.0936403,36.7173248 70.3047438,36.4581147 C70.4148525,36.4513465 70.4988988,36.3557843 70.4932418,36.2456755 L70.1478641,29.4216615 C70.1424091,29.3136741 70.0530089,29.2284156 69.9449205,29.2292181 C64.5766652,29.2722571 58.615843,31.1183462 55.9034305,37.2963553 C55.8669633,37.3793914 55.9513127,37.4639428 56.035359,37.4299" id="Fill-21" fill="#FFC700"></path>
            <path d="M80.3322249,30.8313059 L78.5640201,26.8289039 C78.5288661,26.7494034 78.4468402,26.7012182 78.3602684,26.7094006 L74.9123498,27.0335647 C74.8148682,27.0427573 74.7862804,27.170443 74.8702256,27.2207496 C77.0698749,28.5384177 79.3526613,30.2999555 80.1774666,30.9516173 C80.2601997,31.0169754 80.3748542,30.9276763 80.3322249,30.8313059" id="Fill-23" fill="#007F88"></path>
            <path d="M34.4659571,5.64435727 L32.8587737,10.720875 C32.8260441,10.8242156 32.8807954,10.9351324 32.9828228,10.9719027 L58.3834934,20.1333534 C58.4981479,20.1747705 58.5744159,20.0153653 58.4702672,19.9520276 L34.7635537,5.53273328 C34.6516267,5.4646477 34.5054548,5.51950003 34.4659571,5.64435727" id="Fill-25" fill="#FF7800"></path>
            <path d="M65.3433957,7.7269276 C64.5293993,7.23507492 60.9374301,5.06472066 59.6921913,4.31234465 C59.5979422,4.25537095 59.4940966,4.36931834 59.5587476,4.45851652 L70.3006122,19.2542008 C70.3717283,19.3520865 70.5237591,19.2656158 70.4751699,19.1549009 C69.3602432,16.6143187 66.1224403,9.23551827 65.5848268,8.00240147 C65.5346213,7.88744391 65.450777,7.79178063 65.3433957,7.7269276" id="Fill-27" fill="#FFC700"></path>
            <path d="M77.5685462,13.6581517 L74.9312905,9.96758982 C74.8659324,9.87627029 74.72269,9.94364875 74.7513789,10.0522422 L77.9149342,22.0040907 C77.9460475,22.1215737 78.1201001,22.094097 78.1135339,21.9727754 L77.6805743,13.9777701 C77.6744122,13.8627115 77.6355206,13.7518957 77.5685462,13.6581517" id="Fill-29" fill="#FFC700"></path>
            <path d="M71.3336139,7.92347674 L69.124065,8.60079698 C69.0073901,8.63655706 68.9488002,8.76686924 68.9995108,8.87788712 L74.4412056,20.7919552 C74.4920173,20.9032761 74.6599079,20.8452922 74.63132,20.726395 L71.5892884,8.06944658 C71.5620138,7.95620631 71.4449349,7.88933293 71.3336139,7.92347674" id="Fill-31" fill="#FF7800"></path>
            <path d="M89.5604379,24.3596398 L87.9775996,23.549684 C87.8240535,23.4710926 87.6360605,23.5363497 87.5641363,23.6930274 L84.6495884,30.0464023 C84.6014032,30.1513592 84.7385845,30.2418706 84.8162667,30.15641 L89.6468076,24.8331073 C89.7808574,24.6853192 89.7380261,24.4505552 89.5604379,24.3596398" id="Fill-33" fill="#FF7800"></path>
            <path d="M88.8086882,61.4944567 L89.2200302,56.7085655 C89.2313441,56.5771421 89.1994227,56.4457188 89.1293168,56.3340948 L85.6384658,50.7799678 C85.5759362,50.6805669 85.4226931,50.7497637 85.4561298,50.8623978 L88.6111996,61.5144582 C88.642919,61.6215364 88.7990916,61.6056767 88.8086882,61.4944567" id="Fill-35" fill="#007F88"></path>
            <path d="M92.1202538,52.3516942 L86.0310388,46.5069408 C85.9445681,46.4239047 85.8112254,46.5339124 85.8762805,46.6345255 L90.3560897,53.5712747 C90.4468031,53.7116886 90.634089,53.7520955 90.7747049,53.6616851 L92.074392,52.8251618 C92.23905,52.7191947 92.2614759,52.4872593 92.1202538,52.3516942" id="Fill-37" fill="#C52026"></path>
            <path d="M91.68092,29.193494 L91.2567488,26.7762537 C91.2279589,26.6122018 91.0240052,26.5514905 90.9101589,26.6731152 L86.4400473,31.4501169 C86.3649915,31.5303246 86.4537856,31.6557879 86.5543988,31.6116434 L91.5631339,29.4134084 C91.6483925,29.3760321 91.6969817,29.2852176 91.68092,29.193494" id="Fill-39" fill="#FFC700"></path>
            <path d="M94.2537368,33.8094036 L92.3837067,31.6453124 C92.3002665,31.54874 92.1653075,31.5147982 92.0461072,31.560357 L88.6403128,32.8633777 C88.5441444,32.9001479 88.5582868,33.0404608 88.6598091,33.0573307 L94.1607,33.9750718 C94.2539389,33.9906285 94.3155593,33.8809238 94.2537368,33.8094036" id="Fill-41" fill="#FF7800"></path>
            <path d="M95.0046986,39.2987079 L97.6386207,40.5998093 C97.7303443,40.645065 97.8235832,40.5410173 97.7685288,40.4548496 L95.113191,36.296073 C95.0227807,36.1544469 94.877518,36.0566623 94.7121528,36.0262561 L92.4514892,35.6096612 C92.3617859,35.5931954 92.297842,35.6946167 92.3514822,35.7684603 L94.7829659,39.1117251 C94.8406467,39.1911246 94.9167126,39.2552705 95.0046986,39.2987079" id="Fill-43" fill="#C52026"></path>
            <path d="M90.0892629,44.3423041 L85.5263165,42.1483118 C85.4268146,42.1005307 85.3336768,42.2240747 85.4071163,42.3066057 L91.4355189,49.079101 C91.5068371,49.1591066 91.6372503,49.0876875 91.6082583,48.9845489 L90.4100935,44.7244521 C90.3629184,44.5568646 90.2461426,44.4177639 90.0892629,44.3423041" id="Fill-45" fill="#007F88"></path>
            <path d="M91.4378726,39.8783849 L85.0644963,37.8998623 C84.951155,37.8647083 84.880544,38.0198707 84.9814601,38.0821983 L90.3686057,41.4139472 C90.4970996,41.4935487 90.6646871,41.466072 90.7611585,41.3497002 L91.581216,40.3613481 C91.7191045,40.1951748 91.6440487,39.9423288 91.4378726,39.8783849" id="Fill-47" fill="#C52026"></path>
            <path d="M76.773945,71.5670724 L76.773945,65.2859247 C76.773945,65.2084445 76.6902018,65.1597543 76.6228233,65.1982418 L71.5726711,68.0817774 C71.3836679,68.1896638 71.2670941,68.3905869 71.2670941,68.608178 L71.2670941,75.5341183 C71.2670941,75.608669 71.3445743,75.6576624 71.4116497,75.6252358 C72.1213965,75.2823835 75.257374,73.704091 76.6430268,71.9442706 C76.7277802,71.8366873 76.773945,71.7040517 76.773945,71.5670724" id="Fill-49" fill="#007F88"></path>
            <path d="M72.0257938,49.3115315 C72.2897517,49.2824385 72.9856591,49.1474795 73.625603,48.5223852 C73.6604539,48.4883424 73.6822736,48.4420765 73.6852031,48.3933862 C73.7323781,47.6060583 73.1891077,44.1185409 71.7818373,39.1978927 C71.7653715,39.1401109 71.6797089,39.1533442 71.6830425,39.2133484 C71.8615398,42.4224624 71.90922,48.3470194 71.915281,49.2128377 C71.9156851,49.2722358 71.9667997,49.3179966 72.0257938,49.3115315" id="Fill-51" fill="#007F88"></path>
            <path d="M73.401557,50.3970015 C72.9306148,50.6025715 72.3940115,50.6845975 72.1212651,50.7149026 C72.0186317,50.7263176 71.9414545,50.8126873 71.9416562,50.9159268 L71.944182,52.54493 C71.944283,52.6485736 72.0225713,52.7351453 72.1257099,52.7451461 C73.1267902,52.8422236 75.323712,53.0607237 75.8790035,53.1159801 C75.9463819,53.1226473 76.0007292,53.0629461 75.987799,52.9964768 C75.9011262,52.5504859 75.4755408,51.0913937 73.5530827,50.3908395 C73.5038874,50.3728584 73.4494391,50.376091 73.401557,50.3970015" id="Fill-53" fill="#007F88"></path>
            <path d="M70.8073245,63.7727176 L70.9240274,59.0068277 C70.9253126,58.950056 70.8804609,58.9032851 70.8236893,58.9032851 C70.3054711,58.9038912 67.9286377,58.9044973 65.961328,58.8745962 C65.8929393,58.873586 65.8303087,58.83823 65.7948517,58.7797411 C65.6289814,58.5060855 65.23855,57.6805731 66.0401214,56.9786046 C66.9533168,56.1787505 69.117812,56.0069203 70.757624,56.1330908 C70.816315,56.1376365 70.8657124,56.0916737 70.8657124,56.0327807 L70.8657124,54.6009631 C70.8657124,54.5451006 70.8209618,54.4995418 70.7649983,54.4997439 C67.0149372,54.5105527 61.876496,55.1208986 61.0279516,55.2248452 C60.953502,55.2339368 60.8802645,55.2009042 60.8375342,55.1391827 L60.3331554,54.4096365 C60.2948699,54.3542791 60.2863845,54.2840722 60.3111337,54.2213405 C60.4730642,53.8107056 61.1497784,52.2189778 62.4081494,50.8461543 L62.8211077,49.7331469 C62.8498976,49.6555657 62.7782764,49.5779845 62.6987759,49.6009154 C61.8427563,49.8477004 58.3248327,50.7429147 55.8965816,49.5705092 C55.8409211,49.5435376 55.7748559,49.5715194 55.7569758,49.6306144 C55.5744378,50.2326769 54.7582189,53.1581346 55.1834002,56.0365183 C55.67,59.3299817 63.3902385,64.1246614 70.7094388,63.8719164 C70.7630789,63.8700981 70.8060113,63.8263577 70.8073245,63.7727176" id="Fill-55" fill="#FF7800"></path>
            <path d="M70.0212693,76.2041653 L70.0212693,68.6874765 C70.0212693,68.4485708 69.8543889,68.2419907 69.6205342,68.1933004 C68.2374068,67.9051994 63.4409088,66.7115803 57.8516278,63.0960741 C57.7846534,63.0527378 57.6960613,63.0997108 57.6954552,63.1794133 L57.589481,78.6813088 C57.588377,78.8434414 57.7150526,78.9791075 57.8768821,78.9864817 C63.6702178,79.2531671 68.8504801,76.9509854 69.8483279,76.4779219 C69.9541939,76.4277164 70.0212693,76.3213453 70.0212693,76.2041653" id="Fill-57" fill="#FF7800"></path>
            <path d="M71.9413636,59.104976 L71.9413636,63.7532819 C71.9413636,63.81864 72.0027821,63.8674313 72.0663219,63.8521777 C76.3956155,62.8132159 79.8706067,59.8554327 80.4526677,57.5679995 C80.8957291,55.8265642 81.0991777,52.6661405 81.1382714,51.9980128 C81.142009,51.9333618 81.0850353,51.8837624 81.0209904,51.8938641 C80.2009329,52.0237722 79.3027891,51.8794187 78.984989,51.8185053 C78.9227624,51.8065853 78.8650816,51.8537603 78.8646775,51.9169971 L78.8452822,54.9110455 C78.8449792,54.9521594 78.820432,54.9888287 78.7821465,55.0039813 C78.5770816,55.0853001 77.8847098,55.3442072 76.9458561,55.5297757 C76.8878722,55.5411907 76.851607,55.5985684 76.8671637,55.6555421 C77.1028368,56.5213604 77.2326439,57.4900142 77.2656765,57.7559925 C77.2709294,57.7987228 77.2483015,57.8397357 77.209612,57.8584239 C74.964404,58.946278 72.5564573,59.0046659 72.0416737,59.0039588 C71.9859122,59.0039588 71.9413636,59.0492145 71.9413636,59.104976" id="Fill-59" fill="#007F88"></path>
            <path d="M82.7560212,15.9118351 L80.4691941,15.487967 C80.3393871,15.4639249 80.221702,15.5687807 80.2307936,15.7005071 L80.9203369,25.685551 C80.9285193,25.8037411 81.0984302,25.8137418 81.1203509,25.697269 L82.9177497,16.1478112 C82.9384583,16.0380055 82.8659279,15.9322405 82.7560212,15.9118351" id="Fill-61" fill="#FF7800"></path>
            <path d="M75.3773521,56.1965094 C75.3786653,55.9633617 75.3518958,55.3356409 75.0555114,54.842374 C74.218584,54.4949759 72.5800852,54.4883087 72.1611669,54.4925515 C72.1057085,54.4931576 72.061766,54.5382112 72.061766,54.5935686 L72.061766,56.0729653 C72.061766,56.123979 72.0994454,56.1669113 72.150055,56.1731744 C72.5273542,56.2196423 74.0406927,56.3896542 75.2843153,56.2964154 C75.3367432,56.2925767 75.3770491,56.2491393 75.3773521,56.1965094" id="Fill-63" fill="#007F88"></path>
            <path d="M56.2086338,38.5601914 C55.8230512,39.2667056 56.4406702,39.9596835 56.6704844,40.1821234 C56.7198818,40.2299045 56.7844317,40.2591995 56.8527194,40.2658666 C61.0130112,40.6673089 62.7084836,39.897558 64.4536566,39.6866341 C64.5348744,39.6768354 64.5723518,39.5807681 64.5174994,39.5200567 C64.1551508,39.1188165 62.9286001,38.404928 62.9286001,38.404928 C62.9286001,38.404928 60.5205524,37.4866818 56.2757092,38.5097839 C56.2477274,38.516552 56.2224731,38.5349371 56.2086338,38.5601914" id="Fill-65" fill="#FF7800"></path>
            <path d="M78.8856891,41.4394035 C78.3724208,42.4364431 76.9001963,42.8481892 75.734862,41.9102446 L75.2573538,41.8587258 C75.1191623,41.8438763 75.0075383,41.9697437 75.0388536,42.1052078 L76.5873461,48.7933537 C76.6291672,48.9739724 76.751701,49.1261043 76.9192886,49.2055038 C81.5578968,51.4012134 82.8810199,47.5041724 81.2724222,42.1695557 C81.2320153,42.0355059 81.1239269,41.9324684 80.9885639,41.8970114 C80.5878287,41.7920545 79.7003927,41.5701197 78.8856891,41.4394035" id="Fill-67" fill="#C52026"></path>
            <path d="M80.6290639,38.3291651 C79.0412758,37.9774233 75.3677858,38.5377656 74.4591362,38.6859578 C74.3463,38.704343 74.2714463,38.8127344 74.2938721,38.9248635 L74.475501,39.8352304 C74.4936841,39.9264489 74.5726795,39.9932213 74.6656153,39.997363 C77.902307,40.1414135 79.5123189,40.6774107 81.9978468,40.9490459 C82.1328058,40.9637944 82.2432176,40.8453012 82.2194785,40.7116555 C82.1358363,40.2388951 81.8476343,39.2243794 80.870293,38.4426074 C80.799985,38.3863409 80.7169489,38.3486614 80.6290639,38.3291651" id="Fill-69" fill="#007F88"></path>
            <path d="M84.731978,18.7447914 L82.9411453,28.3243522 C82.9195276,28.4401179 83.0799429,28.4930509 83.1313607,28.3869829 L86.0905581,22.2858478 C86.1637956,22.1347261 86.1711699,21.9600674 86.1107616,21.8033898 L84.9255269,18.7270123 C84.8889587,18.6320562 84.7506662,18.6446833 84.731978,18.7447914" id="Fill-71" fill="#FFC700"></path>
            <path d="M29.7322008,12.8315786 L18.4407017,15.9466456 C18.2320002,16.0042254 18.2478599,16.3053576 18.4615112,16.3407136 L54.4331254,22.2971921 C54.5534369,22.3171935 54.5993997,22.1463734 54.4854523,22.1031381 L30.1084898,12.8491556 C29.9880773,12.8034958 29.8563509,12.7973338 29.7322008,12.8315786" id="Fill-73" fill="#FFC700"></path>
            <path d="M79.5879202,73.5576666 C76.0694916,76.6815221 67.5090931,82.7722523 54.7263783,82.2037276 C54.5535379,82.1960503 54.4086792,82.3330296 54.4086792,82.505971 L54.4086792,88.2587988 C54.4086792,88.4332555 54.5553562,88.5729623 54.7295098,88.5622544 C60.5074909,88.2064719 66.6699433,86.2539107 71.4964435,83.2116771 C75.7325993,80.5416918 78.5882541,77.2614617 79.8320787,73.7195971 C79.8836985,73.5726171 79.704393,73.454326 79.5879202,73.5576666" id="Fill-75" fill="#C52026"></path>
            <path d="M15.3091184,28.6899738 L4.3541075,38.0850773 C4.27400087,38.153769 4.33966204,38.2838791 4.44259856,38.2601401 L48.7635863,28.0545757 C48.8818774,28.0274021 48.8603607,27.8528444 48.7390391,27.8551448 L15.8839062,28.4710696 C15.6726792,28.4751103 15.4694326,28.5524894 15.3091184,28.6899738" id="Fill-77" fill="#FFC700"></path>
            <path d="M72.9541417,85.5290518 C67.9469218,88.6851317 61.605972,90.74962 55.5837314,91.2418767 C55.3785654,91.2586456 55.3266426,91.5345235 55.5120091,91.6242268 L59.9870705,93.7923587 L63.8819902,95.6793597 C64.1321088,95.8005804 64.421624,95.8148238 64.6809351,95.7150188 C65.4634143,95.4140886 66.2331652,95.0903285 66.9875616,94.7449508 C74.7641677,91.1850041 80.8696465,85.2648918 81.6361649,77.1157343 C81.6515195,76.9516824 81.4311,76.8820816 81.3526096,77.0271423 C79.6312768,80.2107999 76.7875419,83.1126196 72.9541417,85.5290518" id="Fill-79" fill="#007F88"></path>
            <path d="M53.5220009,29.0032281 L54.3259967,32.7943021 C54.3426645,32.8729945 54.4400451,32.9015824 54.4966147,32.8444067 L58.2694046,29.0287855 C58.3317322,28.9656497 58.2883958,28.8586725 58.1998037,28.8567532 L53.7240352,28.7593726 C53.5938241,28.7564431 53.4950293,28.8758455 53.5220009,29.0032281" id="Fill-81" fill="#007F88"></path>
            <path d="M93.5257262,46.8849875 L94.4227588,51.6270373 C94.4444775,51.7416918 94.4988247,51.8476589 94.5792344,51.9322102 L97.3330639,54.8254435 C97.4032709,54.899186 97.5261078,54.834535 97.5050962,54.7349321 L96.2452098,48.7624929 C96.2132884,48.6111692 96.1246963,48.4778265 95.9976167,48.3896385 L93.6826059,46.7832632 C93.6083582,46.7316434 93.5089573,46.7961934 93.5257262,46.8849875" id="Fill-83" fill="#C52026"></path>
            <path d="M84.0195745,55.2565545 L84.3763672,67.7176307 C84.3815191,67.8968351 84.5402171,68.0325012 84.7180073,68.0095703 L87.4035492,67.6635865 C87.5874005,67.6399484 87.7071059,67.4582185 87.6562942,67.2799232 L84.2176692,55.2259463 C84.1850406,55.1115949 84.0161399,55.1377583 84.0195745,55.2565545" id="Fill-85" fill="#C52026"></path>
            <path d="M92.6594432,43.0762557 L96.4826406,45.8947362 C96.5861833,45.9710042 96.7335673,45.9325167 96.7866014,45.8154377 L98.0045656,43.1256531 C98.0517406,43.0214034 98.0030503,42.8988695 97.8971843,42.8554321 L94.3699672,41.408664 C94.2609697,41.3640144 94.1360114,41.3864402 94.0494397,41.4663448 L92.6422702,42.7652238 C92.5490314,42.8512904 92.5573148,43.0009979 92.6594432,43.0762557" id="Fill-87" fill="#007F88"></path>
            <path d="M84.3918016,70.6135308 L84.4079654,77.732919 C84.4083694,77.9176795 84.5725224,78.0590025 84.7551614,78.0320309 L89.8169306,77.2854129 C89.9942158,77.2593505 90.1101835,77.085904 90.0666451,76.9120534 L88.390669,70.2194627 C88.3543028,70.074301 88.2173235,69.9773245 88.0683231,69.9913659 L84.6664684,70.3110853 C84.5104978,70.3257328 84.3913986,70.4568531 84.3918016,70.6135308" id="Fill-89" fill="#007F88"></path>
            <path d="M91.7628853,56.0667427 L94.5103508,61.0221408 C94.5781333,61.1443716 94.74663,61.1625547 94.8388587,61.0573958 L97.1166952,58.4615571 C97.2178134,58.3462965 97.2169043,58.1737592 97.1145739,58.0595087 L93.9635447,54.5413832 C93.8618204,54.4278398 93.6916065,54.4075354 93.5660421,54.4939051 L91.8561242,55.6701492 C91.7275293,55.7585392 91.6872235,55.9302685 91.7628853,56.0667427" id="Fill-91" fill="#007F88"></path>
            <path d="M90.0982938,67.6704859 L91.9437768,73.4501843 C91.9769104,73.5538279 92.1279311,73.5390794 92.1403563,73.430991 L93.2433629,63.8746641 C93.2582124,63.7455641 93.2312409,63.6150499 93.1663878,63.5025168 L91.1594794,60.0202523 C91.1110921,59.936206 90.9836084,59.9620664 90.9716884,60.0583358 L90.07011,67.3688486 C90.0575839,67.4702699 90.0671805,67.5731054 90.0982938,67.6704859" id="Fill-93" fill="#C52026"></path>
            <path d="M89.55866,35.4029397 L84.3380918,35.1126163 C84.2227302,35.1062522 84.1886874,35.2671726 84.2967758,35.3079835 L90.7379346,37.7410835 C90.9186544,37.8093711 91.0829083,37.6093571 90.980881,37.4454062 L89.7991819,35.5454749 C89.7470571,35.4616307 89.6572528,35.4083946 89.55866,35.4029397" id="Fill-95" fill="#007F88"></path>
            <path d="M23.7711362,65.5245273 L16.7272077,72.875548 C16.6035627,73.004547 16.5431544,73.1815291 16.5621457,73.3592183 L17.8904207,85.7981717 C17.9005224,85.8924207 18.0230562,85.9221197 18.0752821,85.8430233 L22.5177149,79.0980047 C22.5989328,78.9747637 22.6488352,78.8335417 22.6632807,78.6865617 L23.9445827,65.6042299 C23.9539773,65.5087686 23.8375045,65.4552295 23.7711362,65.5245273" id="Fill-97" fill="#007F88"></path>
            <path d="M43.9148871,44.7589798 C43.9196808,44.6654379 43.8057335,44.6160405 43.7408804,44.683722 L26.5813939,62.5916448 C26.4864378,62.6907427 26.4279488,62.8191355 26.4154227,62.9558118 L25.3686826,74.4236869 C25.359187,74.5283407 25.4958632,74.5762229 25.5536451,74.4884389 L43.7171414,46.911252 C43.7763375,46.8213467 43.8104813,46.7174 43.8162392,46.6100187 L43.9148871,44.7589798 Z" id="Fill-99" fill="#C52026"></path>
            <path d="M35.6657584,74.1856702 L43.2501288,55.6751799 C43.2971018,55.5605254 43.2989201,55.4333447 43.2588163,55.3161648 C43.0587013,54.7314773 42.9132365,54.1032514 42.8305034,53.442397 C42.8189875,53.3496632 42.6975648,53.3221865 42.6462481,53.4002728 L27.7509608,76.0880259 C27.7008563,76.1643949 27.76975,76.2626846 27.8586451,76.241774 L35.3142186,74.4857923 C35.4729166,74.4484159 35.6039359,74.3365899 35.6657584,74.1856702" id="Fill-101" fill="#007F88"></path>
            <path d="M43.830321,40.3813697 L5.35196537,67.0949607 C5.21801658,67.1879975 5.24367495,67.3930624 5.39641294,67.4501371 L14.4352288,70.8316875 C14.5466507,70.8733066 14.6721141,70.8460319 14.7560594,70.7617836 L43.5747476,41.8547054 C43.6544501,41.7746998 43.7102116,41.6740866 43.735769,41.5640789 L43.9862916,40.4872357 C44.0073032,40.3972294 43.906286,40.3286387 43.830321,40.3813697" id="Fill-103" fill="#FF7800"></path>
            <path d="M46.4679707,31.3994366 L3.65284619,41.2518449 C3.49536039,41.288009 3.44212434,41.4852956 3.55980936,41.5959094 L10.1841124,47.8185681 C10.2735126,47.9025134 10.4046329,47.9243331 10.516459,47.8738245 L46.5322176,31.589955 C46.6433365,31.5396485 46.5867669,31.372061 46.4679707,31.3994366" id="Fill-105" fill="#FF7800"></path>
            <path d="M45.2562999,35.3418445 L10.6415485,50.8180816 C10.4354735,50.9102093 10.2710175,51.0756754 10.1803041,51.2823566 L4.54960606,64.0962857 C4.50849207,64.1897266 4.61607537,64.2782177 4.69981862,64.2198297 L45.0507299,36.0769465 C45.151646,36.0065376 45.2287222,35.9071367 45.2717555,35.791775 L45.392168,35.4694292 C45.4234833,35.3853829 45.3381238,35.3052763 45.2562999,35.3418445" id="Fill-107" fill="#FFC700"></path>
            <path d="M48.2276093,56.9456427 C49.8631786,56.9456427 51.2050909,54.8073109 51.2050909,52.2546066 C51.2050909,49.7018013 49.8631786,47.3615361 48.2276093,47.3615361 C46.59204,47.3615361 45.2501277,49.4997669 45.2501277,52.0525722 C45.2501277,54.6052765 46.59204,56.9456427 48.2276093,56.9456427" id="Fill-109" fill="#C52026"></path>
            <path d="M25.6587029,79.2749161 L20.052047,87.814606 C20.0043669,87.8872374 20.0645732,87.9821935 20.1506398,87.9700715 L30.2807443,86.5369406 C30.4938906,86.5067365 30.6751154,86.3658175 30.7567373,86.1666116 L34.4296212,77.2025485 C34.4607345,77.1264826 34.392952,77.0470831 34.3129464,77.0658723 L26.0264055,79.0176253 C25.8754858,79.0531834 25.7438604,79.14521 25.6587029,79.2749161" id="Fill-111" fill="#C52026"></path>
            <path d="M42.2383508,97.5214788 L50.7111673,91.2486146 C50.8639053,91.1354753 50.9548208,90.957281 50.9565381,90.7671667 L51.0274571,83.1626939 C51.0282603,83.0772333 50.9293645,83.0294522 50.8628952,83.0831933 L43.8681621,88.7421761 C43.7565381,88.8325865 43.6805732,88.9595651 43.6539046,89.1006861 L42.0789457,97.4214718 C42.0618738,97.5117812 42.1645072,97.5761291 42.2383508,97.5214788" id="Fill-113" fill="#C52026"></path>
            <path d="M44.5649988,85.2443247 L50.8348326,80.1719487 C50.9755495,80.0581023 51.0579795,79.8873833 51.0596968,79.7063605 L51.2567863,58.567908 C51.2575895,58.4830536 51.1590977,58.4344643 51.0933356,58.4880034 C50.5619852,58.92066 49.9690143,59.2339143 49.3331111,59.4034212 C49.2956337,59.4134219 49.2671469,59.443424 49.2599746,59.4815075 L44.4021591,85.1470452 C44.3846832,85.2393749 44.4918624,85.3035208 44.5649988,85.2443247" id="Fill-115" fill="#007F88"></path>
            <path d="M51.1142663,45.6272427 L51.4602502,40.0883693 C51.471059,39.9149228 51.2723582,39.8096629 51.1348738,39.916034 L47.5581583,42.6846121 C47.4569391,42.7629004 47.4531004,42.9144262 47.5502789,42.9976643 L50.7811116,45.7680607 C50.9076862,45.8765531 51.1038616,45.793719 51.1142663,45.6272427" id="Fill-117" fill="#007F88"></path>
            <path d="M44.8628076,58.2275811 L38.1792075,74.9573405 C38.1307192,75.0785611 38.1311233,75.2139242 38.1803187,75.3349428 L41.7007676,83.9935299 C41.7386491,84.0866678 41.8744162,84.0733335 41.8935084,83.9746397 L46.6567718,59.3381641 C46.6659644,59.290888 46.640104,59.2444201 46.5955554,59.226237 C46.0257175,58.9940995 45.4975996,58.6436709 45.0269605,58.1932353 C44.9749367,58.1433328 44.8895772,58.1607077 44.8628076,58.2275811" id="Fill-119" fill="#C52026"></path>
            <path d="M47.142816,39.6851693 L52.3783348,36.0407723 C52.4789479,35.9707674 52.5274362,35.8470213 52.5012727,35.727316 L51.2987641,30.2339003 C51.2799749,30.1480357 51.1669367,30.1256099 51.1164281,30.1975341 C48.6751457,33.6766671 47.4408167,37.0241746 46.9854312,39.5853644 C46.9697736,39.6736534 47.0692755,39.7363851 47.142816,39.6851693" id="Fill-121" fill="#C52026"></path>
            <path d="M33.2799749,87.8957531 L39.1590742,97.1979208 C39.2079665,97.2751989 39.3262576,97.2528741 39.3436326,97.1630699 L40.9903137,88.6467149 C41.0200128,88.4929667 41.0044561,88.3339657 40.9454621,88.188905 L36.9783151,78.4317559 C36.9440703,78.3475076 36.824668,78.3478107 36.7909283,78.432261 L33.2294663,87.3471288 C33.1574411,87.5274445 33.1762303,87.7314992 33.2799749,87.8957531" id="Fill-123" fill="#007F88"></path>
            <path d="M117.114633,88.3900403 C116.592779,88.3900403 116.169719,87.9669804 116.169719,87.4451256 L116.169719,68.1982199 C116.169719,67.6763651 116.59288,67.2532041 117.114734,67.2532041 L128.132881,67.2532041 C128.639886,67.2532041 129.056683,67.6534342 129.077089,68.1600354 L129.517928,74.7678727 C129.527928,74.9173781 129.647028,75.0365784 129.796634,75.0464781 L133.296678,75.2799288 L136.669641,75.4264037 C136.839855,75.433778 136.981886,75.2978088 136.981886,75.1273928 L136.981886,66.0445335 C136.981886,65.9144234 136.925417,65.7907783 136.827127,65.7055198 L116.495297,48.0646864 C116.288616,47.8852799 116.169719,47.6248576 116.169719,47.351 L116.169719,13.5721659 C116.169719,13.0503111 116.59288,12.6271501 117.114734,12.6271501 L149.738841,12.6271501 C149.872992,12.6271501 150.00785,12.6482627 150.13099,12.7017008 C150.500006,12.8621161 150.714768,13.2192119 150.706144,13.5941876 C150.638096,16.5015633 150.571526,20.8027741 150.502026,26.7437969 C150.434243,32.5820852 150.365451,33.0249446 150.29787,35.9258551 C150.28595,36.4389214 149.866426,36.8493543 149.353258,36.8493543 L138.232983,36.8493543 C137.711129,36.8493543 137.288069,36.4262943 137.288069,35.9043385 L137.288069,26.344678 C137.288069,26.1794139 137.154019,26.0453641 136.988755,26.0453641 L129.845425,26.0453641 C129.684202,26.0453641 129.551869,26.1732518 129.546414,26.3344753 L129.281244,34.1104753 C129.234473,36.1621343 129.144366,39.1062802 129.090928,41.4762445 C129.089009,41.5651396 129.126385,41.6483778 129.19437,41.7058565 C134.043902,45.8079625 141.131571,51.8552553 150.274131,59.6920677 C150.48162,59.87006 150.602134,60.129068 150.604053,60.4025216 L150.706144,73.8692238 L150.706144,81.746342 C150.706144,82.2682978 144.0145,88.3900403 143.492645,88.3900403 L117.114633,88.3900403 Z" id="Fill-125" fill="#C52026"></path>
            <path d="M171.708574,26.5702292 C171.581797,26.5905336 171.483104,26.6886213 171.462395,26.8153979 C171.352892,27.4883744 171.299151,29.2060706 171.299151,33.5679928 C171.299151,37.6785841 171.307637,39.7747918 171.409563,40.8423414 C171.425019,41.0038679 171.597556,41.0993291 171.742516,41.0265968 C172.599546,40.5961625 174.031262,39.8269167 176.422238,38.4606592 L181.441782,35.6315719 C181.531384,35.5810633 181.588762,35.4890366 181.593712,35.3863021 C181.649271,34.2262208 181.704427,32.6779303 181.761602,30.6843562 C181.808777,29.0406045 181.85474,27.7104102 181.900804,26.6626599 C181.908279,26.4924459 181.772209,26.351426 181.601894,26.351426 L177.095113,26.351426 C173.734878,26.351426 172.309424,26.4739598 171.708574,26.5702292 L171.708574,26.5702292 Z M159.148198,79.2984733 C158.621595,79.2984733 158.194697,78.8716757 158.194697,78.3450731 L158.194697,13.5806311 C158.194697,13.0540285 158.621595,12.6271299 159.148299,12.6271299 L194.736048,12.6271299 C195.262549,12.6271299 195.689448,13.0540285 195.689448,13.5805301 L195.689448,42.2397122 C195.689448,42.5859991 195.49994,42.9047083 195.195676,43.0700734 C186.845696,47.6065533 178.961305,52.012822 171.748779,56.1735178 C171.657762,56.2259458 171.601496,56.3220131 171.599576,56.42697 C171.599576,56.42697 171.217428,76.3158398 171.204498,78.3594175 C171.201367,78.8790499 170.779317,79.2984733 170.259684,79.2984733 L159.148198,79.2984733 Z" id="Fill-127" fill="#C52026"></path>
            <path d="M262.655287,24.5692201 C262.567907,26.1862022 262.523358,34.7336705 262.599222,36.7099707 C262.605485,36.8742247 262.781154,36.9752419 262.926316,36.8983678 C264.301261,36.170943 268.90916,33.5987424 269.808112,33.0964849 C269.902765,33.0435519 269.960951,32.943949 269.960951,32.8354565 L269.960951,24.3703173 C269.960951,24.2022247 269.822961,24.0670637 269.65497,24.0711127 C268.452663,24.1002983 264.06377,24.2106091 262.925508,24.2946554 C262.778831,24.3054643 262.663267,24.4224422 262.655287,24.5692201 M287.89902,59.4207557 C287.89635,59.7907817 287.670072,60.1268659 287.328533,60.2689971 C286.728289,60.5186105 284.92695,60.8524723 276.032387,61.2143159 C276.019861,61.214922 276.006829,61.215225 275.994404,61.215225 C275.875507,61.215225 275.75762,61.1923952 275.647208,61.1484527 C275.217885,60.9766224 275.021811,60.8982331 271.668949,54.3213071 C270.42068,51.8730546 268.72541,48.8392054 266.603847,45.2547115 C266.520406,45.1136915 266.338374,45.0652033 266.196141,45.1464211 C265.116066,45.763131 264.045889,46.3763054 262.993795,46.9830146 C262.859443,47.0604948 262.775194,47.2009087 262.770042,47.35597 C262.714079,49.0465937 262.392036,58.8434425 262.380217,60.70923 C262.377086,61.2288624 261.954935,61.6482857 261.435302,61.6482857 L250.315229,61.6482857 C249.793375,61.6482857 249.370315,61.2253268 249.370315,60.703472 L249.370315,13.5721861 C249.370315,13.0502303 249.793375,12.6271703 250.31533,12.6271703 L281.353871,12.6271703 C282.628102,12.6271703 283.641405,13.0362899 283.641405,15.9722535 L283.641506,35.2880528 C283.641506,35.3619974 283.601403,35.429982 283.536449,35.465338 C283.393408,35.5433233 283.249257,35.6216116 283.107328,35.6991928 C281.174566,36.7568427 279.272412,37.8054011 277.397028,38.8453731 C277.256109,38.9234593 277.204085,39.0995323 277.28005,39.2416635 C277.678361,39.9865642 278.098087,40.7702556 278.542664,41.5994046 C284.059415,51.8899244 287.090334,57.4745586 287.550366,58.1982457 C287.56562,58.2250153 287.580874,58.2517848 287.596127,58.2786554 C287.802505,58.6895933 287.901401,59.0630539 287.89902,59.4207557" id="Fill-129" fill="#C52026"></path>
            <path d="M223.276979,57.8075517 C225.287221,56.6918168 226.928346,55.5776983 228.848784,54.4866116 C228.966671,54.4196372 229.040919,54.2950831 229.041323,54.159619 C229.065668,46.7955671 229.422461,20.9390059 229.42236,13.5643472 C229.42236,13.045826 229.841581,12.6271097 230.360102,12.6271097 C232.727844,12.6271097 238.736346,12.6271097 241.102472,12.6271097 C241.620185,12.6271097 242.039204,13.0464321 242.039204,13.5641451 C242.039204,21.5875362 241.720798,53.8989947 241.720697,61.9244061 C241.720697,62.2808958 241.520279,62.6051609 241.202681,62.7669905 C239.186681,63.7941332 226.738535,70.7120932 226.738535,70.7120932 C226.596909,70.7919978 226.225065,70.8893784 225.985553,70.8893784 L204.867607,70.8893784 C204.648905,70.8893784 204.437375,70.8145247 204.268777,70.6751209 C203.432456,69.9837593 202.433598,68.9739915 202.433598,68.0963542 L202.433598,13.5726306 C202.433598,13.0506748 202.856658,12.6271097 203.378614,12.6271097 L214.989125,12.6271097 C215.51098,12.6271097 215.93404,13.0506748 215.93404,13.5725296 L215.93404,57.5797579 C215.93404,57.745022 216.067989,57.8789708 216.233253,57.8789708 L223.001202,57.8789708 C223.09727,57.8789708 223.192933,57.8542216 223.276979,57.8075517" id="Fill-131" fill="#C52026"></path>
            <path d="M230.358193,82.7839905 C230.358193,83.0167341 230.314958,83.1763413 230.228891,83.2623069 C230.142622,83.3485756 229.970287,83.3916089 229.711784,83.3916089 L227.60305,83.3916089 L227.60305,81.1168029 L229.789365,81.1168029 C229.996249,81.1168029 230.142622,81.164281 230.228891,81.2590351 C230.314958,81.3539912 230.358193,81.5047089 230.358193,81.7114911 L230.358193,82.7839905 Z M232.361061,84.6960438 C232.13256,84.4161252 231.580804,84.214798 231.046423,84.2061105 L231.046423,84.1645924 C231.529083,84.156208 232.057201,83.9461933 232.289945,83.6487987 C232.522688,83.3515051 232.63906,82.9830954 232.63906,82.5434686 L232.63906,81.4316734 C232.63906,80.7939519 232.438541,80.2790673 232.037806,79.8867166 C231.637071,79.4946689 230.984197,79.2984935 230.079285,79.2984935 L225.624629,79.2984935 C225.461991,79.2984935 225.330063,79.4303209 225.330063,79.5930596 L225.330063,88.0954742 C225.330063,88.2582129 225.461991,88.3900403 225.624629,88.3900403 L227.308484,88.3900403 C227.471122,88.3900403 227.60305,88.2582129 227.60305,88.0954742 L227.60305,84.9920242 L229.70643,84.9920242 C229.965034,84.9920242 230.13737,85.0417247 230.223638,85.1407215 C230.309705,85.2399204 230.352839,85.3886177 230.352839,85.5867124 L230.352839,88.0960803 C230.352839,88.2584149 230.484465,88.3900403 230.6469,88.3900403 L232.40965,88.3900403 C232.571985,88.3900403 232.70361,88.2584149 232.70361,88.0960803 L232.70361,85.6979323 C232.70361,85.3101273 232.589259,84.9762655 232.361061,84.6960438 L232.361061,84.6960438 Z" id="Fill-133" fill="#FFFFFF"></path>
            <path d="M194.628121,79.2985036 L187.573283,79.2985036 C187.410645,79.2985036 187.278717,79.4304321 187.278717,79.5930697 L187.278717,80.8222469 C187.278717,80.9848845 187.410645,81.116813 187.573283,81.116813 L189.957794,81.116813 L189.957794,88.0954843 C189.957794,88.258122 190.089722,88.3900504 190.25236,88.3900504 L191.936114,88.3900504 C192.098752,88.3900504 192.23068,88.258122 192.23068,88.0954843 L192.23068,81.116813 L194.628121,81.116813 C194.790759,81.116813 194.922687,80.9848845 194.922687,80.8222469 L194.922687,79.5930697 C194.922687,79.4304321 194.790759,79.2985036 194.628121,79.2985036" id="Fill-135" fill="#FFFFFF"></path>
            <path d="M202.304326,81.116813 C202.467065,81.116813 202.598892,80.9848845 202.598892,80.8222469 L202.598892,79.5930697 C202.598892,79.430331 202.467065,79.2985036 202.304326,79.2985036 L196.34108,79.2985036 C196.178341,79.2985036 196.046514,79.430331 196.046514,79.5930697 L196.046514,88.0954843 C196.046514,88.258223 196.178341,88.3900504 196.34108,88.3900504 L202.304326,88.3900504 C202.467065,88.3900504 202.598892,88.258223 202.598892,88.0954843 L202.598892,86.8663072 C202.598892,86.7036695 202.467065,86.5717411 202.304326,86.5717411 L198.3194,86.5717411 L198.3194,84.602512 L201.736105,84.602512 C201.898742,84.602512 202.030671,84.4706846 202.030671,84.3079459 L202.030671,83.3060574 C202.030671,83.1433188 201.898742,83.0114913 201.736105,83.0114913 L198.3194,83.0114913 L198.3194,81.116813 L202.304326,81.116813 Z" id="Fill-137" fill="#FFFFFF"></path>
            <path d="M278.785237,81.116813 C278.947874,81.116813 279.079803,80.9848845 279.079803,80.8222469 L279.079803,79.5930697 C279.079803,79.430331 278.947874,79.2985036 278.785237,79.2985036 L272.82199,79.2985036 C272.659251,79.2985036 272.527424,79.430331 272.527424,79.5930697 L272.527424,88.0954843 C272.527424,88.258223 272.659251,88.3900504 272.82199,88.3900504 L278.785237,88.3900504 C278.947874,88.3900504 279.079803,88.258223 279.079803,88.0954843 L279.079803,86.8663072 C279.079803,86.7036695 278.947874,86.5717411 278.785237,86.5717411 L274.800311,86.5717411 L274.800311,84.602512 L278.217015,84.602512 C278.379653,84.602512 278.511581,84.4706846 278.511581,84.3079459 L278.511581,83.3060574 C278.511581,83.1433188 278.379653,83.0114913 278.217015,83.0114913 L274.800311,83.0114913 L274.800311,81.116813 L278.785237,81.116813 Z" id="Fill-139" fill="#FFFFFF"></path>
            <path d="M206.858232,84.7845652 L207.862948,81.0271299 L208.057002,81.0271299 L209.061719,84.7845652 L206.858232,84.7845652 Z M212.290835,88.0071145 L209.591858,79.5035887 C209.553067,79.3814589 209.439726,79.2985238 209.311636,79.2985238 L206.608416,79.2985238 C206.480225,79.2985238 206.366884,79.3814589 206.328093,79.5035887 L203.629116,88.0071145 C203.569011,88.1967237 203.710435,88.3900706 203.909338,88.3900706 L205.611982,88.3900706 C205.778358,88.3900706 205.924025,88.2782446 205.967058,88.1174253 L206.432848,86.3755859 L209.487204,86.3755859 L209.952893,88.1175263 C209.995926,88.2782446 210.141593,88.3900706 210.307968,88.3900706 L212.010613,88.3900706 C212.209516,88.3900706 212.351041,88.1967237 212.290835,88.0071145 L212.290835,88.0071145 Z" id="Fill-141" fill="#FFFFFF"></path>
            <path d="M237.116586,84.7845652 L238.121303,81.0271299 L238.315357,81.0271299 L239.320074,84.7845652 L237.116586,84.7845652 Z M242.54919,88.0071145 L239.850212,79.5035887 C239.811422,79.3814589 239.698081,79.2985238 239.569991,79.2985238 L236.86667,79.2985238 C236.73858,79.2985238 236.625239,79.3814589 236.586448,79.5035887 L233.887471,88.0071145 C233.827366,88.1967237 233.968891,88.3900706 234.167693,88.3900706 L235.870337,88.3900706 C236.036713,88.3900706 236.182379,88.2782446 236.225413,88.1174253 L236.691203,86.3755859 L239.745559,86.3755859 L240.211248,88.1175263 C240.254281,88.2782446 240.399948,88.3900706 240.566323,88.3900706 L242.268968,88.3900706 C242.467871,88.3900706 242.609396,88.1967237 242.54919,88.0071145 L242.54919,88.0071145 Z" id="Fill-143" fill="#FFFFFF"></path>
            <path d="M221.283738,87.9349781 L218.248677,83.3005116 L220.940078,79.7707691 C221.087664,79.5772201 220.949675,79.2985137 220.706324,79.2985137 L218.983779,79.2985137 C218.868114,79.2985137 218.759218,79.352962 218.689819,79.4454937 L216.703215,82.0942654 L215.717691,82.5345993 L215.717691,79.5930798 C215.717691,79.4303411 215.585864,79.2985137 215.423226,79.2985137 L213.739371,79.2985137 C213.576733,79.2985137 213.444805,79.4303411 213.444805,79.5930798 L213.444805,88.0954944 C213.444805,88.2582331 213.576733,88.3900605 213.739371,88.3900605 L215.423226,88.3900605 C215.585864,88.3900605 215.717691,88.2582331 215.717691,88.0954944 L215.717691,84.960426 L216.505524,84.6084821 L218.802756,88.2198466 C218.870236,88.3258136 218.987214,88.3900605 219.112879,88.3900605 L221.037762,88.3900605 C221.271515,88.3900605 221.411727,88.1305474 221.283738,87.9349781" id="Fill-145" fill="#FFFFFF"></path>
            <path d="M251.512586,79.2985036 L249.838933,79.2985036 C249.672255,79.2985036 249.538912,79.4368972 249.545175,79.6034745 L249.786404,86.0380673 L249.596694,86.0380673 L247.277137,79.4942749 C247.235518,79.3768929 247.124602,79.2985036 247.000047,79.2985036 L244.100652,79.2985036 C243.938317,79.2985036 243.806692,79.430129 243.806692,79.5924636 L243.806692,88.0960904 C243.806692,88.258425 243.938317,88.3900504 244.100652,88.3900504 L245.774305,88.3900504 C245.940983,88.3900504 246.074427,88.2516569 246.068164,88.0849785 L245.826834,81.6504868 L245.991492,81.6504868 L248.310947,88.1942791 C248.352566,88.3116611 248.463584,88.3900504 248.588139,88.3900504 L251.512586,88.3900504 C251.674921,88.3900504 251.806546,88.258425 251.806546,88.0960904 L251.806546,79.5924636 C251.806546,79.430129 251.674921,79.2985036 251.512586,79.2985036" id="Fill-147" fill="#FFFFFF"></path>
            <path d="M270.584176,79.2985036 L268.900422,79.2985036 C268.737683,79.2985036 268.605856,79.430331 268.605856,79.5930697 L268.605856,83.0487667 L264.942265,83.0487667 L264.942265,79.5930697 C264.942265,79.430331 264.810337,79.2985036 264.647699,79.2985036 L262.963945,79.2985036 C262.801206,79.2985036 262.669379,79.430331 262.669379,79.5930697 L262.669379,88.0954843 C262.669379,88.258223 262.801206,88.3900504 262.963945,88.3900504 L264.647699,88.3900504 C264.810337,88.3900504 264.942265,88.258223 264.942265,88.0954843 L264.942265,84.6397874 L268.605856,84.6397874 L268.605856,88.0954843 C268.605856,88.258223 268.737683,88.3900504 268.900422,88.3900504 L270.584176,88.3900504 C270.746814,88.3900504 270.878743,88.258223 270.878743,88.0954843 L270.878743,79.5930697 C270.878743,79.430331 270.746814,79.2985036 270.584176,79.2985036" id="Fill-149" fill="#FFFFFF"></path>
            <path d="M255.409991,84.9068263 C255.409991,86.0836765 256.062461,86.6383619 257.158194,86.6383619 L257.458518,86.6383619 C258.520209,86.6383619 259.098128,86.1667127 259.15793,85.2347281 C259.158436,85.2265457 259.161163,85.1534093 259.164396,85.0682518 C259.170255,84.9102609 259.300062,84.7849996 259.458154,84.7849996 L260.971997,84.7849996 C261.135039,84.7849996 261.266967,84.9177362 261.266063,85.0807779 C261.265553,85.1600764 261.265048,85.2266467 261.264745,85.2355362 C261.19373,87.349826 259.832321,88.5322321 257.472055,88.5322321 L257.114959,88.5322321 C254.720548,88.5322321 253.322168,87.2606278 253.322168,84.9068263 L253.322168,82.8235489 C253.322168,80.4697474 254.720548,79.198042 257.114959,79.198042 L257.472055,79.198042 C259.832321,79.198042 261.19373,80.3805492 261.264745,82.4948389 C261.265048,82.5037284 261.265553,82.5702988 261.266063,82.6495973 C261.266967,82.812639 261.135039,82.9452746 260.971997,82.9452746 L259.458154,82.9452746 C259.300062,82.9452746 259.170255,82.8201143 259.164396,82.6621234 C259.161163,82.5769659 259.158436,82.5038295 259.15793,82.4956471 C259.098128,81.5636625 258.520209,81.0920133 257.458518,81.0920133 L257.158194,81.0920133 C256.062461,81.0920133 255.409991,81.6466986 255.409991,82.8235489 L255.409991,84.9068263 Z" id="Fill-151" fill="#FFFFFF"></path>
            <path d="M182.698426,79.2109924 C185.242038,79.2109924 186.310295,80.1714638 186.310295,81.9436083 L186.310295,82.1636238 C186.310295,82.3260594 186.17867,82.4576848 186.016335,82.4576848 L184.409354,82.4576848 C184.247019,82.4576848 184.115394,82.3260594 184.115394,82.1636238 L184.115394,81.9436083 C184.115394,81.2942699 183.84891,80.918688 182.764693,80.918688 L182.556295,80.918688 C181.443489,80.918688 181.045178,81.2671973 181.045178,81.7542011 L181.045178,81.8894631 C181.045178,82.4847574 181.514605,82.6741646 183.340895,83.1070233 C185.464781,83.6210998 186.492833,84.3244824 186.492833,85.8396392 L186.492833,85.9749012 C186.492833,87.4359128 185.275374,88.5451825 182.745702,88.5451825 L182.616703,88.5451825 C180.100466,88.5451825 178.842499,87.4223765 178.842499,85.6366957 L178.842499,85.4571881 C178.842499,85.2948535 178.974124,85.1632281 179.136459,85.1632281 L180.776372,85.1632281 C180.938706,85.1632281 181.070332,85.2948535 181.070332,85.4571881 L181.070332,85.6366957 C181.070332,86.5160503 181.266002,86.837588 182.643775,86.837588 L182.745702,86.837588 C184.017609,86.837588 184.251363,86.5430219 184.251363,85.9884375 L184.251363,85.8802481 C184.251363,85.3255627 184.03155,85.1083758 181.920492,84.6220791 C179.962981,84.1712394 178.874016,83.499374 178.874016,81.9977536 L178.874016,81.79481 C178.874016,80.1579275 179.932575,79.2109924 182.542758,79.2109924 L182.698426,79.2109924 Z" id="Fill-153" fill="#FFFFFF"></path>
            <path d="M284.104539,79.2109924 C286.648152,79.2109924 287.716408,80.1714638 287.716408,81.9436083 L287.716408,82.1636238 C287.716408,82.3260594 287.584783,82.4576848 287.422448,82.4576848 L285.815467,82.4576848 C285.653132,82.4576848 285.521406,82.3260594 285.521406,82.1636238 L285.521406,81.9436083 C285.521406,81.2942699 285.255024,80.918688 284.170806,80.918688 L283.962408,80.918688 C282.849602,80.918688 282.451292,81.2671973 282.451292,81.7542011 L282.451292,81.8894631 C282.451292,82.4847574 282.920719,82.6741646 284.747008,83.1070233 C286.870895,83.6210998 287.898947,84.3244824 287.898947,85.8396392 L287.898947,85.9749012 C287.898947,87.4359128 286.681487,88.5451825 284.151815,88.5451825 L284.022816,88.5451825 C281.506579,88.5451825 280.248612,87.4223765 280.248612,85.6366957 L280.248612,85.4571881 C280.248612,85.2948535 280.380237,85.1632281 280.542572,85.1632281 L282.182485,85.1632281 C282.34482,85.1632281 282.476445,85.2948535 282.476445,85.4571881 L282.476445,85.6366957 C282.476445,86.5160503 282.672115,86.837588 284.049788,86.837588 L284.151815,86.837588 C285.423722,86.837588 285.657476,86.5430219 285.657476,85.9884375 L285.657476,85.8802481 C285.657476,85.3255627 285.437663,85.1083758 283.326606,84.6220791 C281.369095,84.1712394 280.280129,83.499374 280.280129,81.9977536 L280.280129,81.79481 C280.280129,80.1579275 281.338688,79.2109924 283.948871,79.2109924 L284.104539,79.2109924 Z" id="Fill-155" fill="#FFFFFF"></path>
        </g>
    </g>
</svg>