<svg width="79" height="79" viewBox="0 0 79 79" fill="none" xmlns="http://www.w3.org/2000/svg">
<path fill-rule="evenodd" clip-rule="evenodd" d="M73.7014 23.4036L73.0021 19.5186C72.8467 18.6639 72.3028 17.8869 71.5258 17.4984L69.1171 16.2552L67.5631 12.2148C67.1746 11.2824 66.3976 10.6608 65.4652 10.5054L62.5903 9.96154L59.0938 5.06645C58.3945 4.05635 57.1513 3.66785 55.9858 4.05635L53.1109 4.91105L45.6517 0.404455C44.5639 -0.217144 43.1653 -0.0617445 42.3106 0.792954L39.8242 3.20165L28.6354 1.33685C27.2369 1.10375 25.916 1.95845 25.5275 3.27935L24.0512 7.94135L11.6969 11.2824C10.2206 11.6709 9.28817 13.2249 9.75437 14.7789L11.3861 20.6064L1.36278 29.0757C0.119585 30.1635 0.0418855 32.106 1.28508 33.2715L6.80178 38.4774L1.59588 50.2878C0.974284 51.7641 1.59588 53.4735 3.14988 54.0174L11.2307 57.0477L12.3962 67.9257C12.5516 69.4797 14.0279 70.6452 15.5819 70.4121L24.4397 69.1689L29.4901 77.1719C30.3448 78.5705 32.2096 78.8813 33.5305 77.9489L41.3005 72.1992L49.459 76.2395C49.9252 76.4726 50.5468 76.4727 51.013 76.3173C51.79 76.0065 52.4893 75.6956 53.2663 75.3848C59.4046 72.5877 63.5227 68.3919 65.1544 63.4191L65.3875 62.7198L71.3704 61.8651C72.6136 61.7097 73.6237 60.6996 73.7791 59.3787L74.9446 49.3554L77.8195 46.1697C78.4411 45.4704 78.6742 44.6157 78.5188 43.6833L77.1202 37.1565L78.7519 33.5823C79.1404 32.7276 79.0627 31.7175 78.5965 30.9405L73.8568 23.3259L73.7014 23.4036Z" fill="#000F55"/>
<path fill-rule="evenodd" clip-rule="evenodd" d="M43.0884 36.6129C44.1761 38.0892 49.1489 38.0892 50.0813 36.846L51.2468 33.1941C51.2468 33.1941 51.2468 33.0387 51.2468 32.961C51.0137 32.7279 50.7029 32.5725 50.7029 32.5725C49.6151 32.961 48.7604 32.961 47.9057 32.2617H46.3517H46.1963C43.0107 33.1164 42.4668 35.6805 43.1661 36.6129" fill="#FFC700"/>
<path fill-rule="evenodd" clip-rule="evenodd" d="M62.9001 28.532C62.667 27.755 60.8799 23.3261 56.2179 22.7822C56.1402 22.7822 56.0625 22.7822 56.0625 22.9376V28.2212C56.0625 28.2989 56.0625 28.3766 56.2179 28.3766C59.6367 28.8428 60.2583 28.3766 62.8224 28.6097C62.8224 28.6097 62.9001 28.6097 62.9001 28.532Z" fill="#C52026"/>
<path fill-rule="evenodd" clip-rule="evenodd" d="M40.2901 19.1303L11.7742 14.3906C11.6965 14.3906 11.5411 14.4683 11.6188 14.6237L13.0951 19.9073C13.0951 19.9073 13.1728 19.985 13.2505 19.985L40.2124 19.2857C40.2901 19.2857 40.2901 19.1303 40.2124 19.1303" fill="#FF7800"/>
<path fill-rule="evenodd" clip-rule="evenodd" d="M59.3267 19.0527C57.8504 18.1203 55.908 17.421 53.4216 17.2656C53.3439 17.2656 53.3439 17.3433 53.4216 17.421L56.6849 19.752C56.6849 19.752 56.8404 19.752 56.9181 19.752L59.4044 19.1304C59.4044 19.1304 59.4821 19.0527 59.4044 18.975" fill="#C52026"/>
<path fill-rule="evenodd" clip-rule="evenodd" d="M47.7497 20.607L49.1483 17.7321C49.1483 17.6544 49.1483 17.499 48.9929 17.499C46.6619 17.9652 44.7971 18.8976 43.2431 20.1408C43.1654 20.2185 43.2431 20.3739 43.3208 20.4516L47.5166 20.7624C47.5943 20.7624 47.672 20.7624 47.7497 20.607Z" fill="#C52026"/>
<path fill-rule="evenodd" clip-rule="evenodd" d="M55.3649 38.2439C55.3649 37.3892 55.2095 31.3286 55.2095 30.3185C55.2095 30.2408 55.2095 30.1631 55.0541 30.1631C54.3548 30.1631 53.4224 30.3962 53.0339 30.4739C53.0339 30.4739 52.8785 30.4739 52.8785 30.6293V32.6495C52.8785 32.6495 52.8785 32.7272 52.8785 32.8049L51.0137 38.0885V38.2439L51.8684 38.9432C51.9461 38.9432 51.8684 39.1763 51.8684 39.1763C51.1691 39.4871 50.0036 40.1087 49.2266 41.2742V41.4296C51.4022 41.1188 54.4325 41.0411 55.1318 41.0411C55.2095 41.0411 55.2872 41.0411 55.2872 40.8857C55.2872 40.6526 55.2872 40.031 55.2872 39.6425C55.2872 39.6425 55.2872 39.4871 55.1318 39.4871C53.8886 39.4094 52.8785 38.6324 52.5677 38.3993C52.5677 38.3993 52.5677 38.2439 52.5677 38.1662L53.0339 37.4669C53.0339 37.4669 53.1893 37.3892 53.267 37.4669C53.5778 37.7 54.5102 38.3216 55.2872 38.3216C55.2872 38.3216 55.3649 38.3216 55.3649 38.2439Z" fill="#FF7800"/>
<path fill-rule="evenodd" clip-rule="evenodd" d="M50.1593 20.7618L54.0443 20.2956C54.0443 20.2956 54.122 20.2179 54.0443 20.1402L51.4802 18.2754C51.4802 18.2754 51.3248 18.2754 51.2471 18.2754L50.0039 20.5287C50.0039 20.5287 50.0039 20.6841 50.0816 20.6064" fill="#007F88"/>
<path fill-rule="evenodd" clip-rule="evenodd" d="M37.9599 4.83304L30.6561 3.58984C30.5784 3.58984 30.5007 3.66754 30.6561 3.74524L48.6825 14.7786C48.7602 14.7786 48.8379 14.7786 48.7602 14.6232L38.2707 4.91074C38.2707 4.91074 38.1153 4.83304 38.0376 4.75534" fill="#FFC700"/>
<path fill-rule="evenodd" clip-rule="evenodd" d="M43.1647 2.65758L41.1445 4.60008C41.1445 4.60008 41.1445 4.75548 41.1445 4.83318L51.9448 14.7011C51.9448 14.7011 52.1002 14.7011 52.0225 14.6234L43.3201 2.65758C43.3201 2.65758 43.1647 2.57988 43.087 2.65758" fill="#FF7800"/>
<path fill-rule="evenodd" clip-rule="evenodd" d="M43.8652 29.0755C49.1488 26.8999 51.7129 28.5316 54.9763 28.2985C55.054 28.2985 55.1317 28.2208 55.1317 28.1431L54.8986 22.8595C54.8986 22.7818 54.8986 22.7041 54.7432 22.7041C50.5474 22.7041 45.9631 24.1804 43.8652 28.9978C43.8652 28.9978 43.8652 29.1532 43.9429 29.0755" fill="#FFC700"/>
<path fill-rule="evenodd" clip-rule="evenodd" d="M62.746 23.9474L61.3474 20.8394C61.3474 20.8394 61.2697 20.7617 61.192 20.7617L58.5502 20.9948C58.5502 20.9948 58.4725 21.0725 58.5502 21.1502C60.2596 22.1603 62.0467 23.5589 62.6682 24.0251C62.6682 24.0251 62.8237 24.0251 62.8237 23.9474" fill="#007F88"/>
<path fill-rule="evenodd" clip-rule="evenodd" d="M27.1592 4.36719L25.916 8.32988C25.916 8.40758 25.916 8.48528 25.9937 8.56298L45.7295 15.7114C45.8072 15.7114 45.8849 15.6337 45.7295 15.556L27.3146 4.36719C27.2369 4.36719 27.0815 4.36719 27.0815 4.44489" fill="#FF7800"/>
<path fill-rule="evenodd" clip-rule="evenodd" d="M51.0909 5.99922C50.4693 5.61072 47.6721 3.90132 46.662 3.35742C46.662 3.35742 46.5066 3.35742 46.5843 3.43512L54.8981 14.9347H55.0535C54.1988 12.9922 51.6347 7.24242 51.2462 6.23232C51.2462 6.15462 51.1686 6.07692 51.0909 5.99922Z" fill="#FFC700"/>
<path fill-rule="evenodd" clip-rule="evenodd" d="M60.6482 10.661L58.6281 7.78613H58.4727L60.9591 17.1101C60.9591 17.1878 61.1144 17.1101 61.1144 17.1101L60.8037 10.8941C60.8037 10.8164 60.8036 10.7387 60.7259 10.661" fill="#FFC700"/>
<path fill-rule="evenodd" clip-rule="evenodd" d="M55.7529 6.1543L54.0435 6.6982C53.9658 6.6982 53.8881 6.8536 53.9658 6.9313L58.1616 16.1776C58.1616 16.2553 58.317 16.1776 58.317 16.1776L55.986 6.3097C55.986 6.232 55.9083 6.1543 55.7529 6.232" fill="#FF7800"/>
<path fill-rule="evenodd" clip-rule="evenodd" d="M69.9714 18.9741L68.7282 18.3525C68.5728 18.3525 68.4951 18.3525 68.4174 18.4302L66.1641 23.403C66.1641 23.4807 66.1641 23.5584 66.3195 23.4807L70.0491 19.3626C70.1268 19.2849 70.0491 19.0518 70.0491 18.9741" fill="#FF7800"/>
<path fill-rule="evenodd" clip-rule="evenodd" d="M69.3493 47.8017L69.66 44.0721C69.66 43.9944 69.66 43.8391 69.66 43.7614L66.9406 39.4102H66.7852L69.2716 47.724C69.2716 47.8017 69.427 47.724 69.427 47.724" fill="#007F88"/>
<path fill-rule="evenodd" clip-rule="evenodd" d="M71.9146 40.7302L67.1749 36.2236C67.1749 36.2236 67.0195 36.2236 67.0195 36.3013L70.516 41.6626C70.516 41.7403 70.7491 41.818 70.8268 41.6626L71.8369 41.041C71.9923 40.9633 71.9923 40.8079 71.8369 40.6525" fill="#C52026"/>
<path fill-rule="evenodd" clip-rule="evenodd" d="M71.6029 22.7045L71.2921 20.8397C71.2921 20.6843 71.1367 20.6843 71.059 20.762L67.5625 24.4916C67.5625 24.4916 67.5625 24.647 67.6402 24.647L71.5252 22.9376C71.5252 22.9376 71.6029 22.8599 71.6029 22.7822" fill="#FFC700"/>
<path fill-rule="evenodd" clip-rule="evenodd" d="M73.6227 26.2781L72.1464 24.5687C72.1464 24.5687 71.991 24.491 71.9133 24.5687L69.2715 25.5788V25.7342L73.545 26.4335C73.545 26.4335 73.7004 26.4335 73.545 26.2781" fill="#FF7800"/>
<path fill-rule="evenodd" clip-rule="evenodd" d="M74.1681 30.5517L76.1883 31.5618C76.1883 31.5618 76.3437 31.5618 76.266 31.4841L74.1681 28.2207C74.1681 28.143 74.0127 28.0653 73.8573 27.9876L72.0702 27.6768C72.0702 27.6768 71.9148 27.6768 71.9925 27.8322L73.8573 30.3963C73.8573 30.3963 73.935 30.474 74.0127 30.5517" fill="#C52026"/>
<path fill-rule="evenodd" clip-rule="evenodd" d="M70.3592 34.4369L66.785 32.7275C66.785 32.7275 66.6296 32.7275 66.7073 32.8829L71.3693 38.1665H71.5247L70.5923 34.8254C70.5923 34.67 70.4369 34.5923 70.3592 34.5146" fill="#007F88"/>
<path fill-rule="evenodd" clip-rule="evenodd" d="M71.3711 31.0179L66.3983 29.4639C66.3206 29.4639 66.2429 29.5416 66.3983 29.6193L70.5941 32.1834C70.6718 32.1834 70.8272 32.1834 70.9049 32.1834L71.5265 31.4064C71.6042 31.251 71.5265 31.0956 71.4488 31.0179" fill="#C52026"/>
<path fill-rule="evenodd" clip-rule="evenodd" d="M60.025 55.6493V50.7543C60.025 50.7543 60.025 50.6766 59.8696 50.7543L55.9069 53.0076C55.7515 53.0853 55.6738 53.2407 55.6738 53.3961V58.7573C55.6738 58.7573 55.6738 58.835 55.7515 58.7573C56.2954 58.5242 58.7041 57.281 59.7919 55.8825C59.7919 55.8048 59.8696 55.7271 59.8696 55.5717" fill="#007F88"/>
<path fill-rule="evenodd" clip-rule="evenodd" d="M56.2969 38.3223C56.53 38.3223 57.0739 38.1669 57.5401 37.7007C57.5401 37.7007 57.5401 37.7007 57.5401 37.623C57.5401 37.0014 57.1516 34.2819 56.0638 30.4746C56.2192 32.961 56.2192 37.5453 56.2192 38.2446C56.2192 38.2446 56.2192 38.3223 56.2969 38.2446" fill="#007F88"/>
<path fill-rule="evenodd" clip-rule="evenodd" d="M57.3842 39.1768C56.9957 39.3322 56.6072 39.4099 56.3741 39.4099C56.2964 39.4099 56.2188 39.4099 56.2188 39.5653V40.8085C56.2188 40.8862 56.2187 40.9639 56.3741 40.9639C57.1511 40.9639 58.8605 41.197 59.3267 41.2747C59.3267 41.2747 59.4044 41.2747 59.4044 41.197C59.4044 40.8862 59.0159 39.7207 57.5396 39.1768C57.5396 39.1768 57.4619 39.1768 57.3842 39.1768Z" fill="#007F88"/>
<path fill-rule="evenodd" clip-rule="evenodd" d="M55.3648 49.5886V45.859C55.4425 45.859 55.3648 45.7813 55.3648 45.7813C54.9763 45.7813 53.1115 45.7813 51.5575 45.7813C51.5575 45.7813 51.4798 45.7813 51.4021 45.7813C51.2467 45.5482 50.9359 44.9266 51.5575 44.3828C52.2568 43.7612 53.9662 43.6058 55.2094 43.7612C55.2094 43.7612 55.2871 43.7612 55.2871 43.6835V42.5957C55.2871 42.5957 55.2871 42.518 55.2094 42.518C52.2568 42.518 48.2941 42.9842 47.6725 43.0619C47.6725 43.0619 47.5948 43.0619 47.5171 43.0619L47.1286 42.518C47.1286 42.518 47.1286 42.4403 47.1286 42.3626C47.284 42.0518 47.7502 40.8086 48.7603 39.7208L49.0711 38.8661C49.0711 38.8661 49.0711 38.7107 48.9934 38.7884C48.2941 38.9438 45.5746 39.6431 43.7098 38.7884H43.6321C43.4767 39.2546 42.8551 41.5079 43.1659 43.7612C43.5544 46.3252 49.5373 50.0548 55.2094 49.8217" fill="#FF7800"/>
<path fill-rule="evenodd" clip-rule="evenodd" d="M54.7434 59.2236V53.3961C54.7434 53.2407 54.588 53.0853 54.4326 53.0076C53.3448 52.7745 49.6152 51.8421 45.264 49.0449H45.1086V61.0884C45.0309 61.2438 45.1086 61.3215 45.264 61.3215C49.7706 61.5546 53.811 59.7675 54.588 59.379C54.6657 59.379 54.7434 59.2236 54.7434 59.1459" fill="#FF7800"/>
<path fill-rule="evenodd" clip-rule="evenodd" d="M56.2188 45.9363V49.5105C56.2188 49.5105 56.2187 49.5882 56.2964 49.5105C59.6375 48.7335 62.357 46.4025 62.8232 44.6154C63.134 43.2945 63.2894 40.8081 63.3671 40.2642C63.3671 40.2642 63.3671 40.1865 63.2894 40.1865C62.6678 40.2642 61.9685 40.1865 61.7354 40.1865H61.6577V42.5175C61.5023 42.5175 60.9584 42.7506 60.2591 42.906C60.2591 42.906 60.2591 42.906 60.2591 42.9837C60.4145 43.683 60.5699 44.3823 60.5699 44.6154C60.5699 44.6154 60.5699 44.6154 60.5699 44.6931C58.8605 45.5478 56.9181 45.5478 56.5296 45.5478C56.5296 45.5478 56.4518 45.5478 56.4518 45.6255" fill="#007F88"/>
<path fill-rule="evenodd" clip-rule="evenodd" d="M64.6886 12.3704L62.9015 12.0596C62.8238 12.0596 62.7461 12.0596 62.7461 12.215L63.29 19.985C63.29 20.0627 63.4454 20.0627 63.4454 19.985L64.844 12.6035C64.844 12.5258 64.844 12.4481 64.6886 12.4481" fill="#FF7800"/>
<path fill-rule="evenodd" clip-rule="evenodd" d="M58.9376 43.683C58.9376 43.5276 58.9376 42.9837 58.7045 42.5952C58.0829 42.3621 56.762 42.2844 56.4512 42.3621C56.4512 42.3621 56.4512 42.3621 56.4512 42.4398V43.6053C56.4512 43.6053 56.4512 43.6053 56.4512 43.683C56.762 43.683 57.9275 43.8384 58.8599 43.7607" fill="#007F88"/>
<path fill-rule="evenodd" clip-rule="evenodd" d="M44.0195 30.0084C43.7087 30.5523 44.1749 31.0962 44.408 31.2516C44.408 31.2516 44.4857 31.2516 44.5634 31.2516C47.8268 31.5624 49.1477 30.9408 50.4686 30.7854C50.4686 30.7854 50.5463 30.7077 50.4686 30.63C50.1578 30.3192 49.2254 29.7753 49.2254 29.7753C49.2254 29.7753 47.3606 29.076 44.0195 29.853" fill="#FF7800"/>
<path fill-rule="evenodd" clip-rule="evenodd" d="M61.6573 32.1836C61.2688 32.9606 60.1032 33.2714 59.1709 32.5721H58.7824C58.7047 32.5721 58.627 32.5721 58.627 32.7275L59.7925 37.9334C59.7925 38.0888 59.9479 38.1665 60.0256 38.2442C63.5997 39.9536 64.6875 36.9233 63.4443 32.8052C63.4443 32.7275 63.3666 32.6498 63.2112 32.5721C62.9004 32.4944 62.2012 32.339 61.5796 32.1836" fill="#C52026"/>
<path fill-rule="evenodd" clip-rule="evenodd" d="M62.9787 29.7745C61.7355 29.4637 58.8606 29.9299 58.1613 30.0853C58.0836 30.0853 58.0059 30.163 58.0059 30.2407L58.1613 30.94C58.1613 30.94 58.1613 31.0954 58.3167 31.0954C60.8031 31.1731 62.0463 31.6393 63.9888 31.8724C64.0665 31.8724 64.1442 31.7947 64.1442 31.717C64.1442 31.3285 63.8334 30.5515 63.1341 29.9299C63.1341 29.9299 62.9787 29.9299 62.9787 29.8522" fill="#007F88"/>
<path fill-rule="evenodd" clip-rule="evenodd" d="M66.1642 14.5455L64.7656 22.0047C64.7656 22.0824 64.8433 22.1601 64.921 22.0047L67.252 17.265C67.252 17.1096 67.252 17.0319 67.252 16.8765L66.3196 14.4678H66.1642" fill="#FFC700"/>
<path fill-rule="evenodd" clip-rule="evenodd" d="M23.4298 9.96191L14.6498 12.3706C14.4944 12.3706 14.4944 12.6814 14.6498 12.6814L42.6217 17.3434C42.6994 17.3434 42.7771 17.188 42.6217 17.188L23.6629 9.96191C23.5852 9.96191 23.4298 9.96191 23.3521 9.96191" fill="#FFC700"/>
<path fill-rule="evenodd" clip-rule="evenodd" d="M62.2015 57.2034C59.482 59.6121 52.7998 64.3518 42.8542 63.8856C42.6988 63.8856 42.6211 63.9633 42.6211 64.1187V68.6253C42.6211 68.7807 42.6988 68.8584 42.8542 68.8584C47.3608 68.5476 52.1005 67.0713 55.9078 64.6626C59.1712 62.5647 61.4245 60.0006 62.3569 57.2811C62.3569 57.2034 62.2792 57.048 62.2015 57.1257" fill="#C52026"/>
<path fill-rule="evenodd" clip-rule="evenodd" d="M12.2423 22.3159L3.69531 29.6197V29.7751L38.1164 21.8497C38.1941 21.8497 38.1164 21.6943 38.1164 21.6943L12.5531 22.1605C12.3977 22.1605 12.2423 22.1605 12.0869 22.3159" fill="#FFC700"/>
<path fill-rule="evenodd" clip-rule="evenodd" d="M57.0731 66.449C53.1882 68.9354 48.2931 70.4894 43.5534 70.8779C43.398 70.8779 43.3203 71.111 43.5534 71.1887L47.0499 72.8981L50.0802 74.3744C50.3133 74.4521 50.4687 74.4521 50.7018 74.3744C51.3234 74.1413 51.945 73.9082 52.4889 73.5974C58.5494 70.8002 63.2891 66.2159 63.833 59.9222C63.833 59.7668 63.6776 59.7668 63.5999 59.9222C62.279 62.4086 60.0257 64.6619 57.0731 66.5267" fill="#007F88"/>
<path fill-rule="evenodd" clip-rule="evenodd" d="M41.9219 22.5489L42.5435 25.5015C42.5435 25.5015 42.6212 25.5792 42.6989 25.5015L45.6515 22.5489V22.3935H42.155C42.0773 22.3158 41.9996 22.3935 41.9996 22.4712" fill="#007F88"/>
<path fill-rule="evenodd" clip-rule="evenodd" d="M73.002 36.4576L73.7013 40.1095C73.7013 40.1872 73.7013 40.2649 73.8567 40.3426L76.0323 42.5959H76.1876L75.1776 37.9339C75.1776 37.7785 75.0998 37.7008 75.0221 37.6231L73.2351 36.3799C73.2351 36.3799 73.0797 36.3799 73.0797 36.4576" fill="#C52026"/>
<path fill-rule="evenodd" clip-rule="evenodd" d="M65.6211 42.9838L65.9319 52.6962C65.9319 52.8516 66.0873 52.9293 66.165 52.9293L68.2629 52.6962C68.4183 52.6962 68.496 52.5408 68.496 52.3854L65.8542 42.9838C65.8542 42.9061 65.6988 42.9838 65.6988 42.9838" fill="#C52026"/>
<path fill-rule="evenodd" clip-rule="evenodd" d="M72.3789 33.5049L75.3315 35.6805C75.4092 35.6805 75.5646 35.6805 75.5646 35.6805L76.497 33.5826C76.497 33.5049 76.497 33.4272 76.4193 33.3495L73.6998 32.2617C73.6221 32.2617 73.5444 32.2617 73.4667 32.2617L72.3789 33.2718C72.3789 33.2718 72.3789 33.4272 72.3789 33.5049Z" fill="#007F88"/>
<path fill-rule="evenodd" clip-rule="evenodd" d="M65.9316 54.8724V60.3891C65.9316 60.5445 66.087 60.6222 66.2424 60.6222L70.2051 60.0783C70.3605 60.0783 70.4382 59.9229 70.3605 59.7675L69.0396 54.5617C69.0396 54.484 68.8842 54.4062 68.8065 54.4062L66.1647 54.6394C66.0093 54.6394 65.9316 54.717 65.9316 54.8724Z" fill="#007F88"/>
<path fill-rule="evenodd" clip-rule="evenodd" d="M71.6796 43.6056L73.7775 47.4906C73.7775 47.5683 73.9329 47.5683 74.0106 47.4906L75.7977 45.4704C75.8754 45.3927 75.8754 45.2373 75.7977 45.1596L73.3113 42.4401C73.2336 42.3624 73.0782 42.3624 73.0005 42.4401L71.6796 43.3725C71.6019 43.3725 71.5242 43.6056 71.6796 43.6833" fill="#007F88"/>
<path fill-rule="evenodd" clip-rule="evenodd" d="M70.3594 52.6186L71.758 57.1252C71.758 57.2029 71.9134 57.1252 71.9134 57.1252L72.7681 49.666C72.7681 49.5883 72.7681 49.4329 72.7681 49.3552L71.2141 46.6357H71.0587L70.3594 52.3078C70.3594 52.3855 70.3594 52.4632 70.3594 52.5409" fill="#C52026"/>
<path fill-rule="evenodd" clip-rule="evenodd" d="M69.9717 27.5212L65.9313 27.2881C65.8536 27.2881 65.8536 27.4435 65.9313 27.4435L70.9041 29.3083C71.0595 29.3083 71.1372 29.2306 71.0595 29.0752L70.1271 27.5989C70.1271 27.5989 70.0494 27.5212 69.9717 27.5212Z" fill="#007F88"/>
<path fill-rule="evenodd" clip-rule="evenodd" d="M18.8444 50.9092L13.4054 56.659C13.3277 56.7367 13.25 56.8921 13.25 57.0475L14.2601 66.6823C14.2601 66.6823 14.3378 66.76 14.4155 66.6823L17.8343 61.4764C17.8343 61.3987 17.912 61.2433 17.912 61.1656L18.9221 50.9869C18.9221 50.9869 18.8444 50.9092 18.7667 50.9869" fill="#007F88"/>
<path fill-rule="evenodd" clip-rule="evenodd" d="M34.4639 34.8255C34.4639 34.8255 34.3862 34.7478 34.3085 34.8255L20.9441 48.7338C20.9441 48.7338 20.7887 48.8892 20.7887 49.0446L20.0117 57.9801C20.0117 58.0578 20.0894 58.1355 20.1671 57.9801L34.3085 36.5349C34.3085 36.5349 34.3085 36.3795 34.3085 36.3018V34.8255H34.4639Z" fill="#C52026"/>
<path fill-rule="evenodd" clip-rule="evenodd" d="M28.0914 57.6697L33.9966 43.2953C33.9966 43.2176 33.9966 43.1399 33.9966 42.9845C33.8412 42.5183 33.7635 42.0521 33.6858 41.5082C33.6858 41.5082 33.6081 41.4305 33.5304 41.5082L21.9531 59.146C21.9531 59.146 21.9531 59.3014 22.0308 59.3014L27.8583 57.9028C28.0137 57.9028 28.0914 57.8251 28.1691 57.6697" fill="#007F88"/>
<path fill-rule="evenodd" clip-rule="evenodd" d="M34.3853 31.4072L4.54851 52.1531C4.47081 52.1531 4.47081 52.3862 4.54851 52.4639L11.5415 55.1057C11.6192 55.1057 11.6969 55.1057 11.7746 55.1057L34.1522 32.6504C34.1522 32.6504 34.2299 32.495 34.3076 32.4173L34.5407 31.5626C34.5407 31.5626 34.5407 31.4072 34.3853 31.4849" fill="#FF7800"/>
<path fill-rule="evenodd" clip-rule="evenodd" d="M36.4834 24.4136L3.22788 32.1059C3.07248 32.1059 3.07248 32.2613 3.22788 32.339L8.35607 37.1564C8.35607 37.1564 8.51147 37.2341 8.58917 37.1564L36.5611 24.4913C36.6388 24.4913 36.5611 24.3359 36.5611 24.3359" fill="#FF7800"/>
<path fill-rule="evenodd" clip-rule="evenodd" d="M35.5496 27.4443L8.66547 39.4878C8.51007 39.4878 8.35468 39.7209 8.27698 39.8763L3.92578 49.8219C3.92578 49.8219 3.92578 49.9773 4.08118 49.8996L35.4719 28.0659C35.5496 28.0659 35.6273 27.9105 35.6273 27.8328V27.5997C35.7827 27.5997 35.6273 27.4443 35.6273 27.522" fill="#FFC700"/>
<path fill-rule="evenodd" clip-rule="evenodd" d="M37.8037 44.2268C39.0469 44.2268 40.1346 42.5951 40.1346 40.5749C40.1346 38.5547 39.1246 36.7676 37.8037 36.7676C36.4828 36.7676 35.4727 38.3993 35.4727 40.4195C35.4727 42.4397 36.4828 44.2268 37.8037 44.2268Z" fill="#C52026"/>
<path fill-rule="evenodd" clip-rule="evenodd" d="M20.3219 61.6315L15.9707 68.236V68.3914L23.8184 67.3036C23.9738 67.3036 24.1292 67.1482 24.2069 66.9928L27.0818 59.9999C27.0818 59.9999 27.0818 59.8444 27.0041 59.9221L20.555 61.4761C20.3996 61.4761 20.3219 61.5538 20.2442 61.7092" fill="#C52026"/>
<path fill-rule="evenodd" clip-rule="evenodd" d="M33.1422 75.7731L39.7466 70.878C39.902 70.8003 39.902 70.6449 39.902 70.4895V64.5843L34.4631 69.0132C34.3854 69.0132 34.3077 69.1686 34.3077 69.324L33.0645 75.7731C33.0645 75.7731 33.0645 75.9285 33.2199 75.8508" fill="#C52026"/>
<path fill-rule="evenodd" clip-rule="evenodd" d="M35.007 66.216L39.9021 62.2533C39.9798 62.1756 40.0575 62.0202 40.0575 61.8648L40.2129 45.4701C40.2129 45.4701 40.2129 45.3924 40.0575 45.4701C39.669 45.7809 39.2028 46.014 38.6589 46.1694L34.8516 66.1383C34.8516 66.1383 34.8516 66.2937 35.007 66.1383" fill="#007F88"/>
<path fill-rule="evenodd" clip-rule="evenodd" d="M40.0586 35.4467L40.2917 31.1732C40.2917 31.0178 40.1363 30.9401 40.0586 31.0178L37.2614 33.1934C37.1837 33.1934 37.1837 33.3488 37.2614 33.4265L39.7478 35.6021C39.8255 35.6798 39.9809 35.6021 39.9809 35.5244" fill="#007F88"/>
<path fill-rule="evenodd" clip-rule="evenodd" d="M35.2391 45.2373L30.0332 58.2132C30.0332 58.2909 30.0332 58.4463 30.0332 58.524L32.7527 65.2839H32.9081L36.6377 46.1697C36.6377 46.1697 36.6377 46.1697 36.6377 46.092C36.1715 45.9366 35.783 45.6258 35.3945 45.315C35.3945 45.315 35.3168 45.315 35.2391 45.315" fill="#C52026"/>
<path fill-rule="evenodd" clip-rule="evenodd" d="M36.9503 30.8627L40.9907 28.0655C41.0684 28.0655 41.0684 27.9101 41.0684 27.8324L40.136 23.5589C40.136 23.5589 40.0583 23.4812 39.9806 23.5589C38.1158 26.2784 37.1057 28.8425 36.7949 30.8627C36.7949 30.8627 36.7949 31.0181 36.9503 30.8627Z" fill="#C52026"/>
<path fill-rule="evenodd" clip-rule="evenodd" d="M26.2261 68.3141L30.8104 75.5402H30.9658L32.209 68.9357C32.209 68.7803 32.209 68.7026 32.209 68.5472L29.101 60.9326H28.9456L26.1484 67.8479C26.1484 68.0033 26.1484 68.1587 26.1484 68.2364" fill="#007F88"/>
</svg>
